# xmcd
#
# Track frame offsets:
#	150
#	14958
#	30244
#	46694
#	60741
#	79001
#	92962
#	114550
#	133083
#	144943
#	158298
#	173382
#	188265
#
# Disc length: 2670 seconds
#
# Revision: 1
# Processed by: cddbd v1.5.2PL0 Copyright (c) Steve Scherf et al.
# Submitted via: audiograbber 1.83.01
#
DISCID=930a6c0d
DTITLE=Red Wine - Carolina Red
DYEAR=2018
DGENRE=Bluegrass
TTITLE0=Henry Hill
TTITLE1=American Girl
TTITLE2=La Canzone Dell'Amore Perduto
TTITLE3=Start Sawing On The Strings
TTITLE4=Back To You
TTITLE5=Sad Parting, Sad Goodbye
TTITLE6=Evergreen
TTITLE7=Little Steps
TTITLE8=Mc Caleb
TTITLE9=Nancy Ann
TTITLE10=Somewhere Between
TTITLE11=Hometown Boy
TTITLE12=Randall Collins
EXTD=Recorded by Jens Krüger at Double Time Studio, North Wilkesboro, North Car
EXTD=olina, February 2018
EXTT0=
EXTT1=
EXTT2=
EXTT3=
EXTT4=
EXTT5=
EXTT6=
EXTT7=
EXTT8=
EXTT9=
EXTT10=
EXTT11=
EXTT12=
PLAYORDER=
